<svg width="27" height="27" viewBox="0 0 27 27" fill="none" xmlns="http://www.w3.org/2000/svg">
<path d="M19.1562 13.375C19.1562 13.9023 18.7168 14.3418 18.2188 14.3418H14V18.5605C14 19.0586 13.5605 19.4688 13.0625 19.4688C12.5352 19.4688 12.125 19.0586 12.125 18.5605V14.3418H7.90625C7.37891 14.3418 6.96875 13.9023 6.96875 13.375C6.96875 12.877 7.37891 12.4668 7.90625 12.4668H12.125V8.24805C12.125 7.7207 12.5352 7.28125 13.0625 7.28125C13.5605 7.28125 14 7.7207 14 8.24805V12.4668H18.2188C18.7168 12.4375 19.1562 12.877 19.1562 13.375Z" fill="#78809C"/>
<rect x="1" y="0.5" width="25" height="26" rx="5.5" stroke="#78809C"/>
</svg>
